<svg aria-hidden="true" style="position: absolute; width: 0; height: 0; overflow: hidden;" version="1.1" xmlns="http://www.w3.org/2000/svg" xmlns:xlink="http://www.w3.org/1999/xlink">
<defs>
<symbol id="icon-email" viewBox="0 0 32 32">
<title>email</title>
<path d="M29 4h-26c-1.657 0-3 1.343-3 3v18c0 1.656 1.343 3 3 3h26c1.657 0 3-1.344 3-3v-18c0-1.657-1.343-3-3-3zM2.741 25.99l-0.731-0.732 8.249-8.248 0.731 0.732-8.249 8.248zM29.259 25.99l-8.249-8.248 0.731-0.732 8.249 8.248-0.731 0.732zM17 19.325v0.675h-2v-0.675l-12.997-12.050 1.272-1.272 12.725 11.798 12.725-11.798 1.272 1.272-12.997 12.050z"></path>
</symbol>
<symbol id="icon-facebook" viewBox="0 0 32 32">
<title>facebook</title>
<path d="M19 6h5v-6h-5c-3.86 0-7 3.14-7 7v3h-4v6h4v16h6v-16h5l1-6h-6v-3c0-0.542 0.458-1 1-1z"></path>
</symbol>
<symbol id="icon-instagram" viewBox="0 0 32 32">
<title>instagram</title>
<path d="M16 2.881c4.275 0 4.781 0.019 6.462 0.094 1.563 0.069 2.406 0.331 2.969 0.55 0.744 0.288 1.281 0.638 1.837 1.194 0.563 0.563 0.906 1.094 1.2 1.838 0.219 0.563 0.481 1.412 0.55 2.969 0.075 1.688 0.094 2.194 0.094 6.463s-0.019 4.781-0.094 6.463c-0.069 1.563-0.331 2.406-0.55 2.969-0.288 0.744-0.637 1.281-1.194 1.837-0.563 0.563-1.094 0.906-1.837 1.2-0.563 0.219-1.413 0.481-2.969 0.55-1.688 0.075-2.194 0.094-6.463 0.094s-4.781-0.019-6.463-0.094c-1.563-0.069-2.406-0.331-2.969-0.55-0.744-0.288-1.281-0.637-1.838-1.194-0.563-0.563-0.906-1.094-1.2-1.837-0.219-0.563-0.481-1.413-0.55-2.969-0.075-1.688-0.094-2.194-0.094-6.463s0.019-4.781 0.094-6.463c0.069-1.563 0.331-2.406 0.55-2.969 0.288-0.744 0.638-1.281 1.194-1.838 0.563-0.563 1.094-0.906 1.838-1.2 0.563-0.219 1.412-0.481 2.969-0.55 1.681-0.075 2.188-0.094 6.463-0.094zM16 0c-4.344 0-4.887 0.019-6.594 0.094-1.7 0.075-2.869 0.35-3.881 0.744-1.056 0.412-1.95 0.956-2.837 1.85-0.894 0.888-1.438 1.781-1.85 2.831-0.394 1.019-0.669 2.181-0.744 3.881-0.075 1.713-0.094 2.256-0.094 6.6s0.019 4.887 0.094 6.594c0.075 1.7 0.35 2.869 0.744 3.881 0.413 1.056 0.956 1.95 1.85 2.837 0.887 0.887 1.781 1.438 2.831 1.844 1.019 0.394 2.181 0.669 3.881 0.744 1.706 0.075 2.25 0.094 6.594 0.094s4.888-0.019 6.594-0.094c1.7-0.075 2.869-0.35 3.881-0.744 1.050-0.406 1.944-0.956 2.831-1.844s1.438-1.781 1.844-2.831c0.394-1.019 0.669-2.181 0.744-3.881 0.075-1.706 0.094-2.25 0.094-6.594s-0.019-4.887-0.094-6.594c-0.075-1.7-0.35-2.869-0.744-3.881-0.394-1.063-0.938-1.956-1.831-2.844-0.887-0.887-1.781-1.438-2.831-1.844-1.019-0.394-2.181-0.669-3.881-0.744-1.712-0.081-2.256-0.1-6.6-0.1v0z"></path>
<path d="M16 7.781c-4.537 0-8.219 3.681-8.219 8.219s3.681 8.219 8.219 8.219 8.219-3.681 8.219-8.219c0-4.537-3.681-8.219-8.219-8.219zM16 21.331c-2.944 0-5.331-2.387-5.331-5.331s2.387-5.331 5.331-5.331c2.944 0 5.331 2.387 5.331 5.331s-2.387 5.331-5.331 5.331z"></path>
<path d="M26.462 7.456c0 1.060-0.859 1.919-1.919 1.919s-1.919-0.859-1.919-1.919c0-1.060 0.859-1.919 1.919-1.919s1.919 0.859 1.919 1.919z"></path>
</symbol>
<symbol id="icon-twitter" viewBox="0 0 32 32">
<title>twitter</title>
<path d="M32 7.075c-1.175 0.525-2.444 0.875-3.769 1.031 1.356-0.813 2.394-2.1 2.887-3.631-1.269 0.75-2.675 1.3-4.169 1.594-1.2-1.275-2.906-2.069-4.794-2.069-3.625 0-6.563 2.938-6.563 6.563 0 0.512 0.056 1.012 0.169 1.494-5.456-0.275-10.294-2.888-13.531-6.862-0.563 0.969-0.887 2.1-0.887 3.3 0 2.275 1.156 4.287 2.919 5.463-1.075-0.031-2.087-0.331-2.975-0.819 0 0.025 0 0.056 0 0.081 0 3.181 2.263 5.838 5.269 6.437-0.55 0.15-1.131 0.231-1.731 0.231-0.425 0-0.831-0.044-1.237-0.119 0.838 2.606 3.263 4.506 6.131 4.563-2.25 1.762-5.075 2.813-8.156 2.813-0.531 0-1.050-0.031-1.569-0.094 2.913 1.869 6.362 2.95 10.069 2.95 12.075 0 18.681-10.006 18.681-18.681 0-0.287-0.006-0.569-0.019-0.85 1.281-0.919 2.394-2.075 3.275-3.394z"></path>
</symbol>
<symbol id="icon-phone" viewBox="0 0 22 28">
<title>phone</title>
<path d="M22 19.375c0 0.562-0.25 1.656-0.484 2.172-0.328 0.766-1.203 1.266-1.906 1.656-0.922 0.5-1.859 0.797-2.906 0.797-1.453 0-2.766-0.594-4.094-1.078-0.953-0.344-1.875-0.766-2.734-1.297-2.656-1.641-5.859-4.844-7.5-7.5-0.531-0.859-0.953-1.781-1.297-2.734-0.484-1.328-1.078-2.641-1.078-4.094 0-1.047 0.297-1.984 0.797-2.906 0.391-0.703 0.891-1.578 1.656-1.906 0.516-0.234 1.609-0.484 2.172-0.484 0.109 0 0.219 0 0.328 0.047 0.328 0.109 0.672 0.875 0.828 1.188 0.5 0.891 0.984 1.797 1.5 2.672 0.25 0.406 0.719 0.906 0.719 1.391 0 0.953-2.828 2.344-2.828 3.187 0 0.422 0.391 0.969 0.609 1.344 1.578 2.844 3.547 4.813 6.391 6.391 0.375 0.219 0.922 0.609 1.344 0.609 0.844 0 2.234-2.828 3.187-2.828 0.484 0 0.984 0.469 1.391 0.719 0.875 0.516 1.781 1 2.672 1.5 0.313 0.156 1.078 0.5 1.188 0.828 0.047 0.109 0.047 0.219 0.047 0.328z"></path>
</symbol>
<symbol id="icon-car" viewBox="0 0 24 24">
<title>car</title>
<path d="M5.016 11.016h13.969l-1.5-4.5h-10.969zM17.484 15.984q0.609 0 1.055-0.445t0.445-1.055-0.445-1.055-1.055-0.445-1.055 0.445-0.445 1.055 0.445 1.055 1.055 0.445zM6.516 15.984q0.609 0 1.055-0.445t0.445-1.055-0.445-1.055-1.055-0.445-1.055 0.445-0.445 1.055 0.445 1.055 1.055 0.445zM18.938 6l2.063 6v8.016q0 0.422-0.281 0.703t-0.703 0.281h-1.031q-0.422 0-0.703-0.281t-0.281-0.703v-1.031h-12v1.031q0 0.422-0.281 0.703t-0.703 0.281h-1.031q-0.422 0-0.703-0.281t-0.281-0.703v-8.016l2.063-6q0.281-0.984 1.453-0.984h10.969q1.172 0 1.453 0.984z"></path>
</symbol>
<symbol id="icon-arrow-up" viewBox="0 0 32 32">
<title>arrow-up</title>
<path d="M16 1l-15 15h9v16h12v-16h9z"></path>
</symbol>

<symbol id="icon-google-plus" viewBox="0 0 32 32">
<title>google-plus</title>
<path d="M10.181 14.294v3.494h5.775c-0.231 1.5-1.744 4.394-5.775 4.394-3.475 0-6.313-2.881-6.313-6.431s2.838-6.431 6.313-6.431c1.981 0 3.3 0.844 4.056 1.569l2.762-2.662c-1.775-1.656-4.075-2.662-6.819-2.662-5.631 0.006-10.181 4.556-10.181 10.188s4.55 10.181 10.181 10.181c5.875 0 9.775-4.131 9.775-9.95 0-0.669-0.075-1.181-0.163-1.688h-9.613z"></path>
<path d="M32 14h-3v-3h-3v3h-3v3h3v3h3v-3h3z"></path>
</symbol>

<symbol id="icon-checked" viewBox="0 0 32 32">
<title>checked</title>
<path d="M27 4l-15 15-7-7-5 5 12 12 20-20z"></path>
</symbol>

<symbol id="icon-inventory" viewBox="0 0 20 20">
<title>inventory</title>
<path d="M18 4h-1v15h1c1.1 0 2-0.9 2-2v-11c0-1.1-0.9-2-2-2zM0 6v11c0 1.1 0.899 2 2 2h1v-15h-1c-1.101 0-2 0.9-2 2zM13.5 1.906c-0.681-0.316-1.889-0.906-3.519-0.906-1.633 0-2.8 0.59-3.481 0.906v2.094h-2.5v15h12v-15h-2.5v-2.094zM12 4h-4v-1.336c0.534-0.23 1.078-0.465 1.981-0.465s1.486 0.234 2.019 0.465v1.336z"></path>
</symbol>
<symbol id="icon-pencil" viewBox="0 0 32 32">
<title>pencil</title>
<path d="M27 0c2.761 0 5 2.239 5 5 0 1.126-0.372 2.164-1 3l-2 2-7-7 2-2c0.836-0.628 1.874-1 3-1zM2 23l-2 9 9-2 18.5-18.5-7-7-18.5 18.5zM22.362 11.362l-14 14-1.724-1.724 14-14 1.724 1.724z"></path>
</symbol>
<symbol id="icon-pub" viewBox="0 0 32 32">
<title>pub</title>
<path d="M0 2v20h32v-20h-32zM30 20h-28v-16h28v16zM21 24h-10l-1 4-2 2h16l-2-2z"></path>
</symbol>
<symbol id="icon-stats" viewBox="0 0 32 32">
<title>stats</title>
<path d="M0 26h32v4h-32zM4 18h4v6h-4zM10 10h4v14h-4zM16 16h4v8h-4zM22 4h4v20h-4z"></path>
</symbol>
<symbol id="icon-command" viewBox="0 0 32 32">
<title>command</title>
<path d="M29 4h-26c-1.65 0-3 1.35-3 3v18c0 1.65 1.35 3 3 3h26c1.65 0 3-1.35 3-3v-18c0-1.65-1.35-3-3-3zM3 6h26c0.542 0 1 0.458 1 1v3h-28v-3c0-0.542 0.458-1 1-1zM29 26h-26c-0.542 0-1-0.458-1-1v-9h28v9c0 0.542-0.458 1-1 1zM4 20h2v4h-2zM8 20h2v4h-2zM12 20h2v4h-2z"></path>
</symbol>



<symbol id="icon-speedometer" viewBox="0 0 428.948 428.948">
<title>speedometer</title>
<g>
	<g>
		<path  d="M221.988,280.48c9.664,0,17.516-7.889,17.516-17.563c0-9.653-7.852-17.487-17.516-17.487
			l-79.361-58.371l61.844,76.985C205.045,273.208,212.68,280.48,221.988,280.48z"/>
		<rect x="127.008" y="332.197"  width="174.933" height="41.513"/>
		<path  d="M366.13,118.057c-40.51-40.509-94.369-62.818-151.656-62.818
			c-57.288,0-111.148,22.309-151.657,62.818S0,212.425,0,269.713c0,36.99,9.319,72.539,26.816,103.997h40.086l29.319-16.929
			l-12.948-22.428l-37.7,21.768c-13.319-25.932-20.843-55.307-20.843-86.408c0-5.504,0.25-10.951,0.711-16.338l44.952,7.926
			l4.497-25.504l-45.481-8.019c8.127-35.883,26.451-67.937,51.755-92.948l30.815,36.725l19.839-16.646l-31.049-37.002
			c28.471-21.379,63.128-34.938,100.757-37.485v49.117h25.896V80.422c37.629,2.549,72.286,16.107,100.758,37.486l-31.05,37.001
			l19.838,16.646l30.816-36.726c25.303,25.012,43.627,57.066,51.754,92.948l-45.48,8.021l4.498,25.502l44.949-7.927
			c0.461,5.388,0.711,10.834,0.711,16.338c0,31.103-7.521,60.479-20.842,86.409l-37.701-21.766l-12.947,22.427l29.318,16.927h40.088
			c17.498-31.458,26.816-67.007,26.816-103.997C428.949,212.424,406.638,158.564,366.13,118.057z"/>
	</g>
</g>
</symbol>

<symbol id="icon-engine" viewBox="0 0 480 480">
<title>engine</title>
<g>
	<g>
		<path d="M477.656,226.344l-16-16c-1.5-1.5-3.534-2.344-5.656-2.344h-24c-4.418,0-8,3.582-8,8v40h-16v-56c0-4.418-3.582-8-8-8
			h-51.72l-29.6-44.44c-1.489-2.232-3.997-3.568-6.68-3.56h-48v-16h56c4.418,0,8-3.582,8-8V88c0-4.418-3.582-8-8-8H160
			c-4.418,0-8,3.582-8,8v32c0,4.418,3.582,8,8,8h56v16h-48c-2.674,0-5.172,1.335-6.656,3.56L131.72,192H88c-4.418,0-8,3.582-8,8v48
			H64v-48c0-4.418-3.582-8-8-8H24c-2.674,0-5.172,1.335-6.656,3.56l-16,24C0.47,220.876,0.003,222.42,0,224v24
			c0.003,1.58,0.47,3.124,1.344,4.44L16,274.4V344c0,4.418,3.582,8,8,8h32c4.418,0,8-3.582,8-8v-48h16v48c0,4.418,3.582,8,8,8h43.72
			l29.6,44.44c1.489,2.232,3.997,3.568,6.68,3.56h232c4.418,0,8-3.582,8-8v-72h16v56c0,4.418,3.582,8,8,8h24
			c2.122,0,4.156-0.844,5.656-2.344l16-16c1.5-1.5,2.344-3.534,2.344-5.656V232C480,229.878,479.156,227.844,477.656,226.344z
			 M48,256v80H32v-64c-0.003-1.58-0.47-3.124-1.344-4.44L16,245.6v-19.2L28.28,208H48V256z M80,280H64v-16h16V280z M168,112V96h144
			v16H168z M248,128v16h-16v-16H248z M360,384H172.28l-29.6-44.44c-1.489-2.232-3.997-3.568-6.68-3.56H96V208h40
			c2.674,0,5.172-1.335,6.656-3.56L172.28,160h135.44l29.6,44.44c1.489,2.232,3.997,3.568,6.68,3.56h16V384z M392,264v120h-16V208
			h16V264z M424,304h-16v-32h16V304z M464,356.688L452.688,368H440V224h12.688L464,235.312V356.688z"/>
	</g>
</g>
<g>
	<g>
		<path d="M309.897,258.593C308.381,256.94,306.242,256,304,256h-38.024l13.832-62.264c0.958-4.313-1.761-8.586-6.074-9.545
			c-2.55-0.567-5.216,0.147-7.142,1.913l-96,88c-3.256,2.986-3.475,8.047-0.489,11.303C171.619,287.06,173.758,288,176,288h38.024
			l-13.832,62.264c-0.958,4.313,1.761,8.586,6.074,9.545c2.55,0.567,5.216-0.147,7.142-1.913l96-88
			C312.664,266.91,312.883,261.849,309.897,258.593z M221.32,328.936l10.488-47.2c0.959-4.313-1.76-8.587-6.073-9.545
			c-0.57-0.127-1.151-0.191-1.735-0.191h-27.432l62.112-56.936l-10.488,47.2c-0.959,4.313,1.76,8.587,6.073,9.545
			c0.57,0.127,1.151,0.19,1.735,0.191h27.432L221.32,328.936z"/>
	</g>
</g>
<g>
	<g>
		<rect x="112" y="256" width="16" height="64"/>
	</g>
</g>
<g>
	<g>
		<rect x="112" y="224" width="16" height="16"/>
	</g>
</g>
</symbol>

<symbol id="icon-gas-station" viewBox="0 0 384 384">
<title>gas-station</title>
<g>
	<g>
		<path d="M352.427,90.24l0.32-0.32L273.28,10.667L250.667,33.28l45.013,45.013c-20.053,7.68-34.347,26.987-34.347,49.707
			c0,29.44,23.893,53.333,53.333,53.333c7.573,0,14.827-1.6,21.333-4.48v153.813C336,342.4,326.4,352,314.667,352
			c-11.733,0-21.333-9.6-21.333-21.333v-96c0-23.573-19.093-42.667-42.667-42.667h-21.333V42.667C229.333,19.093,210.24,0,186.667,0
			h-128C35.093,0,16,19.093,16,42.667V384h213.333V224h32v106.667c0,29.44,23.893,53.333,53.333,53.333
			c29.44,0,53.333-23.893,53.333-53.333V128C368,113.28,362.027,99.947,352.427,90.24z M186.667,149.333h-128V42.667h128V149.333z
			 M314.667,149.333c-11.733,0-21.333-9.6-21.333-21.333s9.6-21.333,21.333-21.333c11.733,0,21.333,9.6,21.333,21.333
			S326.4,149.333,314.667,149.333z"/>
	</g>
</g>
</symbol>

<symbol id="icon-road" viewBox="0 0 455.416 455.416">
<title>road</title>
<g>
	<g>
		<path d="M235.968,52.552c0.39,9.688,0.778,19.376,1.169,29.064c-7.543,0-11.313,0-18.855,0c0.389-9.688,0.779-19.376,1.167-29.064
			c-15.295,0-30.589,0-45.884,0c-30.747,116.771-61.499,233.539-92.245,350.312c41.352,0,82.704,0,124.055,0
			c0.389-9.689,0.778-19.377,1.168-29.064c14.111,0,28.222,0,42.332,0c0.392,9.688,0.78,19.375,1.168,29.064
			c41.352,0,82.703,0,124.055,0c-30.747-116.771-61.498-233.54-92.245-350.312C266.559,52.552,251.264,52.552,235.968,52.552z
			 M216.531,125.133c7.451,0,14.902-0.004,22.354-0.002c1.082,26.939,2.163,53.88,3.247,80.818c-9.616,0-19.231,0-28.848,0
			C214.37,179.012,215.45,152.072,216.531,125.133z M208.29,330.282c1.081-26.938,2.165-53.877,3.247-80.815
			c10.781,0,21.562-0.002,32.342-0.002c1.083,26.938,2.166,53.879,3.247,80.817C234.182,330.282,221.235,330.282,208.29,330.282z"/>
		<path d="M311.929,52.552c-6.248,0-9.373,0-15.621,0c38.961,116.771,77.913,233.541,116.876,350.312c14.077,0,28.155,0,42.232,0
			C407.589,286.091,359.759,169.323,311.929,52.552z"/>
		<path d="M143.487,52.552C95.657,169.324,47.826,286.091,0,402.864c14.078,0,28.155,0,42.233,0
			c38.958-116.771,77.915-233.54,116.875-350.312C152.86,52.552,149.735,52.552,143.487,52.552z"/>
	</g>
</g>
</symbol>

<symbol id="icon-gear" viewBox="0 0 512.001 512">
<title>gear</title>
<path d="m470.375 400.640625v-289.507813c23.960938-6.574218 41.625-28.535156 41.625-54.554687 0-31.195313-25.378906-56.578125-56.578125-56.578125-31.195313 0-56.578125 25.382812-56.578125 56.578125 0 25.988281 17.625 47.929687 41.542969 54.53125v129.785156h-103.257813v-129.773437c23.941406-6.585938 41.585938-28.539063 41.585938-54.542969 0-31.195313-25.378906-56.578125-56.578125-56.578125-31.195313 0-56.578125 25.382812-56.578125 56.578125 0 26.003906 17.644531 47.957031 41.585937 54.542969v129.773437h-103.257812v-129.773437c23.941406-6.585938 41.585937-28.539063 41.585937-54.542969 0-31.195313-25.378906-56.578125-56.578125-56.578125-31.195312 0-56.578125 25.382812-56.578125 56.578125 0 26.003906 17.644532 47.957031 41.585938 54.542969v129.773437h-99.964844v-130.476562c22.726562-7.34375 39.214844-28.699219 39.214844-53.839844 0-31.195313-25.378906-56.578125-56.578125-56.578125-31.195313 0-56.574219 25.378906-56.574219 56.578125 0 26.855469 18.816406 49.382813 43.949219 55.136719v159.167968h129.953125v129.769532c-23.941406 6.589844-41.585938 28.539062-41.585938 54.546875 0 31.195312 25.382813 56.574219 56.578125 56.574219 31.199219 0 56.578125-25.378907 56.578125-56.574219 0-26.007813-17.644531-47.957031-41.585937-54.546875v-129.769532h103.257812v129.769532c-23.941406 6.589844-41.582031 28.539062-41.582031 54.546875 0 31.195312 25.378906 56.574219 56.574219 56.574219 31.199219 0 56.578125-25.378907 56.578125-56.574219 0-26.007813-17.640625-47.957031-41.582032-54.546875v-129.769532h103.253907v129.78125c-23.917969 6.605469-41.539063 28.542969-41.539063 54.535157 0 31.195312 25.378906 56.574219 56.574219 56.574219 31.199219 0 56.578125-25.378907 56.578125-56.574219 0-26.023438-17.664062-47.984375-41.625-54.558594zm-174.828125-344.0625c0-14.664063 11.929687-26.589844 26.589844-26.589844 14.664062 0 26.59375 11.925781 26.59375 26.589844 0 14.660156-11.929688 26.589844-26.59375 26.589844-14.660157 0-26.589844-11.929688-26.589844-26.589844zm-133.242187 0c0-14.664063 11.929687-26.589844 26.589843-26.589844 14.664063 0 26.589844 11.925781 26.589844 26.589844 0 14.660156-11.925781 26.589844-26.589844 26.589844-14.660156 0-26.589843-11.929688-26.589843-26.589844zm-132.316407 0c0-14.664063 11.925781-26.589844 26.589844-26.589844 14.660156 0 26.589844 11.925781 26.589844 26.589844 0 14.660156-11.929688 26.589844-26.589844 26.589844-14.664063 0-26.589844-11.929688-26.589844-26.589844zm185.496094 398.621094c0 14.660156-11.929687 26.589843-26.589844 26.589843-14.664062 0-26.589843-11.929687-26.589843-26.589843 0-14.664063 11.925781-26.59375 26.589843-26.59375 14.660157 0 26.589844 11.929687 26.589844 26.59375zm133.242187 0c0 14.660156-11.925781 26.589843-26.589843 26.589843-14.660157 0-26.589844-11.929687-26.589844-26.589843 0-14.664063 11.929687-26.59375 26.589844-26.59375 14.664062 0 26.589843 11.929687 26.589843 26.59375zm80.105469-398.621094c0-14.664063 11.929688-26.589844 26.589844-26.589844 14.664063 0 26.589844 11.925781 26.589844 26.589844 0 14.660156-11.925781 26.589844-26.589844 26.589844-14.660156 0-26.589844-11.929688-26.589844-26.589844zm26.589844 425.210937c-14.660156 0-26.589844-11.929687-26.589844-26.589843 0-14.664063 11.929688-26.59375 26.589844-26.59375 14.664063 0 26.589844 11.929687 26.589844 26.59375 0 14.660156-11.925781 26.589843-26.589844 26.589843zm0 0"/>
</symbol>






</defs>
</svg>
