<svg aria-hidden="true" style="position: absolute; width: 0; height: 0; overflow: hidden;" version="1.1" xmlns="http://www.w3.org/2000/svg" xmlns:xlink="http://www.w3.org/1999/xlink">
<defs>
<symbol id="icon-email" viewBox="0 0 32 32">
<title>email</title>
<path d="M29 4h-26c-1.657 0-3 1.343-3 3v18c0 1.656 1.343 3 3 3h26c1.657 0 3-1.344 3-3v-18c0-1.657-1.343-3-3-3zM2.741 25.99l-0.731-0.732 8.249-8.248 0.731 0.732-8.249 8.248zM29.259 25.99l-8.249-8.248 0.731-0.732 8.249 8.248-0.731 0.732zM17 19.325v0.675h-2v-0.675l-12.997-12.050 1.272-1.272 12.725 11.798 12.725-11.798 1.272 1.272-12.997 12.050z"></path>
</symbol>
<symbol id="icon-facebook" viewBox="0 0 32 32">
<title>facebook</title>
<path d="M19 6h5v-6h-5c-3.86 0-7 3.14-7 7v3h-4v6h4v16h6v-16h5l1-6h-6v-3c0-0.542 0.458-1 1-1z"></path>
</symbol>
<symbol id="icon-instagram" viewBox="0 0 32 32">
<title>instagram</title>
<path d="M16 2.881c4.275 0 4.781 0.019 6.462 0.094 1.563 0.069 2.406 0.331 2.969 0.55 0.744 0.288 1.281 0.638 1.837 1.194 0.563 0.563 0.906 1.094 1.2 1.838 0.219 0.563 0.481 1.412 0.55 2.969 0.075 1.688 0.094 2.194 0.094 6.463s-0.019 4.781-0.094 6.463c-0.069 1.563-0.331 2.406-0.55 2.969-0.288 0.744-0.637 1.281-1.194 1.837-0.563 0.563-1.094 0.906-1.837 1.2-0.563 0.219-1.413 0.481-2.969 0.55-1.688 0.075-2.194 0.094-6.463 0.094s-4.781-0.019-6.463-0.094c-1.563-0.069-2.406-0.331-2.969-0.55-0.744-0.288-1.281-0.637-1.838-1.194-0.563-0.563-0.906-1.094-1.2-1.837-0.219-0.563-0.481-1.413-0.55-2.969-0.075-1.688-0.094-2.194-0.094-6.463s0.019-4.781 0.094-6.463c0.069-1.563 0.331-2.406 0.55-2.969 0.288-0.744 0.638-1.281 1.194-1.838 0.563-0.563 1.094-0.906 1.838-1.2 0.563-0.219 1.412-0.481 2.969-0.55 1.681-0.075 2.188-0.094 6.463-0.094zM16 0c-4.344 0-4.887 0.019-6.594 0.094-1.7 0.075-2.869 0.35-3.881 0.744-1.056 0.412-1.95 0.956-2.837 1.85-0.894 0.888-1.438 1.781-1.85 2.831-0.394 1.019-0.669 2.181-0.744 3.881-0.075 1.713-0.094 2.256-0.094 6.6s0.019 4.887 0.094 6.594c0.075 1.7 0.35 2.869 0.744 3.881 0.413 1.056 0.956 1.95 1.85 2.837 0.887 0.887 1.781 1.438 2.831 1.844 1.019 0.394 2.181 0.669 3.881 0.744 1.706 0.075 2.25 0.094 6.594 0.094s4.888-0.019 6.594-0.094c1.7-0.075 2.869-0.35 3.881-0.744 1.050-0.406 1.944-0.956 2.831-1.844s1.438-1.781 1.844-2.831c0.394-1.019 0.669-2.181 0.744-3.881 0.075-1.706 0.094-2.25 0.094-6.594s-0.019-4.887-0.094-6.594c-0.075-1.7-0.35-2.869-0.744-3.881-0.394-1.063-0.938-1.956-1.831-2.844-0.887-0.887-1.781-1.438-2.831-1.844-1.019-0.394-2.181-0.669-3.881-0.744-1.712-0.081-2.256-0.1-6.6-0.1v0z"></path>
<path d="M16 7.781c-4.537 0-8.219 3.681-8.219 8.219s3.681 8.219 8.219 8.219 8.219-3.681 8.219-8.219c0-4.537-3.681-8.219-8.219-8.219zM16 21.331c-2.944 0-5.331-2.387-5.331-5.331s2.387-5.331 5.331-5.331c2.944 0 5.331 2.387 5.331 5.331s-2.387 5.331-5.331 5.331z"></path>
<path d="M26.462 7.456c0 1.060-0.859 1.919-1.919 1.919s-1.919-0.859-1.919-1.919c0-1.060 0.859-1.919 1.919-1.919s1.919 0.859 1.919 1.919z"></path>
</symbol>
<symbol id="icon-twitter" viewBox="0 0 32 32">
<title>twitter</title>
<path d="M32 7.075c-1.175 0.525-2.444 0.875-3.769 1.031 1.356-0.813 2.394-2.1 2.887-3.631-1.269 0.75-2.675 1.3-4.169 1.594-1.2-1.275-2.906-2.069-4.794-2.069-3.625 0-6.563 2.938-6.563 6.563 0 0.512 0.056 1.012 0.169 1.494-5.456-0.275-10.294-2.888-13.531-6.862-0.563 0.969-0.887 2.1-0.887 3.3 0 2.275 1.156 4.287 2.919 5.463-1.075-0.031-2.087-0.331-2.975-0.819 0 0.025 0 0.056 0 0.081 0 3.181 2.263 5.838 5.269 6.437-0.55 0.15-1.131 0.231-1.731 0.231-0.425 0-0.831-0.044-1.237-0.119 0.838 2.606 3.263 4.506 6.131 4.563-2.25 1.762-5.075 2.813-8.156 2.813-0.531 0-1.050-0.031-1.569-0.094 2.913 1.869 6.362 2.95 10.069 2.95 12.075 0 18.681-10.006 18.681-18.681 0-0.287-0.006-0.569-0.019-0.85 1.281-0.919 2.394-2.075 3.275-3.394z"></path>
</symbol>
<symbol id="icon-phone" viewBox="0 0 22 28">
<title>phone</title>
<path d="M22 19.375c0 0.562-0.25 1.656-0.484 2.172-0.328 0.766-1.203 1.266-1.906 1.656-0.922 0.5-1.859 0.797-2.906 0.797-1.453 0-2.766-0.594-4.094-1.078-0.953-0.344-1.875-0.766-2.734-1.297-2.656-1.641-5.859-4.844-7.5-7.5-0.531-0.859-0.953-1.781-1.297-2.734-0.484-1.328-1.078-2.641-1.078-4.094 0-1.047 0.297-1.984 0.797-2.906 0.391-0.703 0.891-1.578 1.656-1.906 0.516-0.234 1.609-0.484 2.172-0.484 0.109 0 0.219 0 0.328 0.047 0.328 0.109 0.672 0.875 0.828 1.188 0.5 0.891 0.984 1.797 1.5 2.672 0.25 0.406 0.719 0.906 0.719 1.391 0 0.953-2.828 2.344-2.828 3.187 0 0.422 0.391 0.969 0.609 1.344 1.578 2.844 3.547 4.813 6.391 6.391 0.375 0.219 0.922 0.609 1.344 0.609 0.844 0 2.234-2.828 3.187-2.828 0.484 0 0.984 0.469 1.391 0.719 0.875 0.516 1.781 1 2.672 1.5 0.313 0.156 1.078 0.5 1.188 0.828 0.047 0.109 0.047 0.219 0.047 0.328z"></path>
</symbol>
<symbol id="icon-car" viewBox="0 0 24 24">
<title>car</title>
<path d="M5.016 11.016h13.969l-1.5-4.5h-10.969zM17.484 15.984q0.609 0 1.055-0.445t0.445-1.055-0.445-1.055-1.055-0.445-1.055 0.445-0.445 1.055 0.445 1.055 1.055 0.445zM6.516 15.984q0.609 0 1.055-0.445t0.445-1.055-0.445-1.055-1.055-0.445-1.055 0.445-0.445 1.055 0.445 1.055 1.055 0.445zM18.938 6l2.063 6v8.016q0 0.422-0.281 0.703t-0.703 0.281h-1.031q-0.422 0-0.703-0.281t-0.281-0.703v-1.031h-12v1.031q0 0.422-0.281 0.703t-0.703 0.281h-1.031q-0.422 0-0.703-0.281t-0.281-0.703v-8.016l2.063-6q0.281-0.984 1.453-0.984h10.969q1.172 0 1.453 0.984z"></path>
</symbol>
<symbol id="icon-arrow-up" viewBox="0 0 32 32">
<title>arrow-up</title>
<path d="M16 1l-15 15h9v16h12v-16h9z"></path>
</symbol>

<symbol id="icon-google-plus" viewBox="0 0 32 32">
<title>google-plus</title>
<path d="M10.181 14.294v3.494h5.775c-0.231 1.5-1.744 4.394-5.775 4.394-3.475 0-6.313-2.881-6.313-6.431s2.838-6.431 6.313-6.431c1.981 0 3.3 0.844 4.056 1.569l2.762-2.662c-1.775-1.656-4.075-2.662-6.819-2.662-5.631 0.006-10.181 4.556-10.181 10.188s4.55 10.181 10.181 10.181c5.875 0 9.775-4.131 9.775-9.95 0-0.669-0.075-1.181-0.163-1.688h-9.613z"></path>
<path d="M32 14h-3v-3h-3v3h-3v3h3v3h3v-3h3z"></path>
</symbol>

<symbol id="icon-gas-station" viewBox="0 0 384 384">
<title>gas-station</title>
<g>
	<g>
		<path d="M352.427,90.24l0.32-0.32L273.28,10.667L250.667,33.28l45.013,45.013c-20.053,7.68-34.347,26.987-34.347,49.707
			c0,29.44,23.893,53.333,53.333,53.333c7.573,0,14.827-1.6,21.333-4.48v153.813C336,342.4,326.4,352,314.667,352
			c-11.733,0-21.333-9.6-21.333-21.333v-96c0-23.573-19.093-42.667-42.667-42.667h-21.333V42.667C229.333,19.093,210.24,0,186.667,0
			h-128C35.093,0,16,19.093,16,42.667V384h213.333V224h32v106.667c0,29.44,23.893,53.333,53.333,53.333
			c29.44,0,53.333-23.893,53.333-53.333V128C368,113.28,362.027,99.947,352.427,90.24z M186.667,149.333h-128V42.667h128V149.333z
			 M314.667,149.333c-11.733,0-21.333-9.6-21.333-21.333s9.6-21.333,21.333-21.333c11.733,0,21.333,9.6,21.333,21.333
			S326.4,149.333,314.667,149.333z"/>
	</g>
</g>
</symbol>

<symbol id="icon-road" viewBox="0 0 455.416 455.416">
<title>road</title>
<g>
	<g>
		<path d="M235.968,52.552c0.39,9.688,0.778,19.376,1.169,29.064c-7.543,0-11.313,0-18.855,0c0.389-9.688,0.779-19.376,1.167-29.064
			c-15.295,0-30.589,0-45.884,0c-30.747,116.771-61.499,233.539-92.245,350.312c41.352,0,82.704,0,124.055,0
			c0.389-9.689,0.778-19.377,1.168-29.064c14.111,0,28.222,0,42.332,0c0.392,9.688,0.78,19.375,1.168,29.064
			c41.352,0,82.703,0,124.055,0c-30.747-116.771-61.498-233.54-92.245-350.312C266.559,52.552,251.264,52.552,235.968,52.552z
			 M216.531,125.133c7.451,0,14.902-0.004,22.354-0.002c1.082,26.939,2.163,53.88,3.247,80.818c-9.616,0-19.231,0-28.848,0
			C214.37,179.012,215.45,152.072,216.531,125.133z M208.29,330.282c1.081-26.938,2.165-53.877,3.247-80.815
			c10.781,0,21.562-0.002,32.342-0.002c1.083,26.938,2.166,53.879,3.247,80.817C234.182,330.282,221.235,330.282,208.29,330.282z"/>
		<path d="M311.929,52.552c-6.248,0-9.373,0-15.621,0c38.961,116.771,77.913,233.541,116.876,350.312c14.077,0,28.155,0,42.232,0
			C407.589,286.091,359.759,169.323,311.929,52.552z"/>
		<path d="M143.487,52.552C95.657,169.324,47.826,286.091,0,402.864c14.078,0,28.155,0,42.233,0
			c38.958-116.771,77.915-233.54,116.875-350.312C152.86,52.552,149.735,52.552,143.487,52.552z"/>
	</g>
</g>
</symbol>

<symbol id="icon-gear" viewBox="0 0 512 512">
<title>gear</title>
<g>
	<g>
		<path d="M405.333,213.333H288V164.32c31.217-12.694,53.333-43.255,53.333-78.987C341.333,38.271,303.052,0,256,0
			s-85.333,38.271-85.333,85.333c0,35.732,22.116,66.293,53.333,78.987v166.346c0,17.646,14.354,32,32,32s32-14.354,32-32V320
			h42.667c5.896,0,10.667-4.771,10.667-10.667v-32c0-11.771,9.573-21.333,21.333-21.333S384,265.563,384,277.333V448
			c0,11.771-9.573,21.333-21.333,21.333s-21.333-9.563-21.333-21.333v-53.333c0-5.896-4.771-10.667-10.667-10.667H288
			c-5.896,0-10.667,4.771-10.667,10.667V448c0,11.771-9.573,21.333-21.333,21.333s-21.333-9.563-21.333-21.333v-53.333
			c0-5.896-4.771-10.667-10.667-10.667h-42.667c-5.896,0-10.667,4.771-10.667,10.667V448c0,11.771-9.573,21.333-21.333,21.333
			c-11.76,0-21.333-9.563-21.333-21.333V277.333c0-11.771,9.573-21.333,21.333-21.333c11.76,0,21.333,9.563,21.333,21.333v32
			c0,5.896,4.771,10.667,10.667,10.667H192c5.896,0,10.667-4.771,10.667-10.667V224c0-5.896-4.771-10.667-10.667-10.667h-85.333
			C83.135,213.333,64,232.479,64,256v213.333C64,492.854,83.135,512,106.667,512h298.667C428.865,512,448,492.854,448,469.333V256
			C448,232.479,428.865,213.333,405.333,213.333z M229.333,64c-8.823,0-16-7.188-16-16s7.177-16,16-16c8.823,0,16,7.188,16,16
			S238.156,64,229.333,64z"/>
	</g>
</g>
</symbol>

<symbol id="icon-buy" viewBox="0 0 18.972 18.972">
<title>buy</title>
<g>
	<g>
		<path  d="M17.873,3.12L7.284,3.126c-0.607-0.001-1.101,0.493-1.1,1.101v0.505
			C5.959,4.635,5.68,4.567,5.324,4.567c-0.445,0-0.814,0.1-0.855,0.113C4.383,4.704,4.305,4.746,4.238,4.805L0.202,8.341
			C0.07,8.458-0.004,8.627,0,8.803l0.035,5.821c0.008,0.31,0.364,0.563,0.675,0.577c0.016,0,1.521,0.063,2.851,0.063
			c0.811,0,1.383-0.021,1.748-0.067c1.064-0.134,1.529-0.448,1.722-0.648c0.2-0.146,0.378-0.29,0.564-0.434
			c-0.155,0.568,0.104,1.187,0.648,1.462c0.176,0.09,0.374,0.138,0.57,0.138c0.349,0,0.669-0.145,0.903-0.385
			c0.115,0.156,0.261,0.292,0.445,0.387c0.177,0.087,0.374,0.135,0.571,0.135c0.478,0,0.91-0.267,1.126-0.693l0.837-1.648
			c0.153-0.302,0.185-0.645,0.079-0.965c-0.034-0.104-0.088-0.201-0.148-0.291l5.239,0.003c0.607,0,1.102-0.494,1.103-1.1
			l0.004-6.924C18.973,3.625,18.48,3.12,17.873,3.12z M10.072,13.012l-0.835,1.65c-0.113,0.228-0.407,0.325-0.636,0.21
			c-0.233-0.119-0.326-0.405-0.209-0.637l0.687-1.353c0,0,0.225-0.549,0.584-0.555c0.07,0.002,0.138,0.017,0.202,0.05
			c0.112,0.058,0.196,0.153,0.235,0.274C10.14,12.772,10.132,12.899,10.072,13.012z M8.756,11.561l-0.755,0.692h0.007
			c-0.473,0.41-1.036,0.865-1.729,1.377c-0.052,0.038-0.056,0.034-0.093,0.086c-0.002,0.002-0.231,0.206-1.021,0.304
			c-0.216,0.027-0.668,0.023-1.603,0.023c-0.813,0-1.825,0.012-2.378-0.007L1.193,9.05l3.714-3.255
			c0.1-0.019,0.252-0.041,0.417-0.041c0.242,0,0.409,0.043,0.499,0.132v4.116c0,0.209,0.11,0.401,0.29,0.509
			c0.021,0.012,0.045,0.01,0.067,0.02v0.044l0.055-0.028c0.153,0.051,0.318,0.058,0.464-0.023c0.923-0.5,2.672-1.295,3.434-1.295
			c0.034,0,0.063,0,0.083,0.004c0.003,0.007,0.006,0.011,0.01,0.017C10.242,9.329,10.318,10.015,8.756,11.561z M11.989,13.15
			l-0.835,1.65c-0.114,0.228-0.409,0.324-0.637,0.209c-0.232-0.117-0.324-0.404-0.207-0.636l0.836-1.65
			c0.081-0.16,0.242-0.261,0.422-0.261c0.075,0,0.147,0.019,0.215,0.053c0.114,0.058,0.197,0.155,0.235,0.273
			C12.058,12.91,12.049,13.037,11.989,13.15z M18.236,11.155c-0.001,0.205-0.165,0.367-0.367,0.367l-7.476-0.002
			c0.611-0.754,0.962-1.43,1.02-2.016c0.043-0.464-0.094-0.76-0.195-0.907c-0.125-0.236-0.419-0.557-1.085-0.557
			c-0.871,0-2.229,0.57-3.124,0.996V7.393L18.237,7.39L18.236,11.155z M18.237,5.214L6.917,5.209V4.225
			c0-0.203,0.164-0.367,0.366-0.367l10.59-0.008c0.2,0,0.367,0.178,0.367,0.38L18.237,5.214z"/>
		<polygon points="17.403,10.842 17.395,9.847 14.496,9.845 14.505,10.842 		"/>
	</g>
</g>
</symbol>

<symbol id="icon-yoga" viewBox="0 0 484.651 484.65">
<title>yoga</title>
<g>
	<g id="_x32_7_48_">
		<g>
			<path d="M243.458,153.771c0.085,0,0.171-0.006,0.257-0.006c0.087,0,0.172,0.006,0.258,0.006
				c42.464,0,76.884-34.422,76.884-76.887c0-42.46-34.42-76.884-76.884-76.884c-0.086,0-0.171,0.006-0.258,0.006
				c-0.086,0-0.171-0.006-0.257-0.006c-42.465,0-76.884,34.424-76.884,76.884C166.572,119.349,200.991,153.771,243.458,153.771z"/>
			<path d="M436.565,311.038l-86.702-63.042l-27.417-66.953c-5.218-12.74-17.645-20.336-30.638-20.05l-0.004-0.03h-49.479h-49.477
				l-0.004,0.03c-12.994-0.286-25.419,7.31-30.638,20.05l-27.418,66.953l-86.702,63.042c-14.443,10.502-17.64,30.724-7.136,45.169
				c6.327,8.698,16.185,13.32,26.179,13.32c6.594,0,13.248-2.012,18.988-6.189l93.744-68.154l-2.389,24.675l-88.637,89.839
				c-12.297,12.795-15.765,31.698-8.809,48.027c6.955,16.327,22.987,26.926,40.735,26.926h42.368
				c-10.918-9.882-17.88-24.627-17.88-41.093c0-29.688,22.571-53.839,50.315-53.839c0,0,32.453,0,48.258,0
				c15.807,0,28.35,12.922,28.35,12.922h-76.608c-21.085,0-38.24,18.354-38.24,40.917c0,22.562,17.155,40.916,38.24,40.916h74.192
				c0.832-0.06,1.68-0.063,2.5-0.161h89.683c17.748,0,33.779-10.6,40.735-26.929c6.955-16.326,3.488-35.228-8.808-48.025
				l-86.706-89.951h-0.024l-2.345-24.224l93.743,68.154c5.738,4.178,12.395,6.189,18.986,6.189c9.995,0,19.853-4.622,26.18-13.32
				C454.205,341.762,451.009,321.54,436.565,311.038z"/>
		</g>
	</g>
</g>
</symbol>

<symbol id="icon-key" viewBox="0 0 480.003 480.003">
<title>key</title>
<path d="m348.013 128v-80c-.03-26.497-21.503-47.97-48-48h-64c-26.497.03-47.97 21.503-48 48v80c.032 23.409 16.923 43.391 40 47.321v104.679c0 2.122.843 4.157 2.343 5.657l32 32c3.124 3.124 8.189 3.124 11.314 0l32-32c1.5-1.5 2.343-3.535 2.343-5.657v-20.687l13.657-13.656c3.124-3.124 3.124-8.189 0-11.314l-10.344-10.343 10.344-10.343c3.124-3.124 3.124-8.189 0-11.314l-13.657-13.656v-13.366c23.077-3.93 39.968-23.912 40-47.321zm-53.657 101.657 10.344 10.343-10.344 10.343c-1.5 1.5-2.343 3.535-2.343 5.657v20.687l-16 16v-100.687h-16v100.687l-16-16v-100.687h48v16c0 2.122.843 4.157 2.343 5.657l10.344 10.343-10.344 10.343c-3.124 3.124-3.124 8.189 0 11.314zm5.657-69.657h-64c-17.665-.02-31.98-14.335-32-32v-80c.02-17.665 14.335-31.98 32-32h64c17.665.02 31.98 14.335 32 32v80c-.02 17.665-14.335 31.98-32 32z"/><path d="m292.013 32h-48c-13.249.015-23.985 10.751-24 24v16c0 4.418 3.582 8 8 8h80c4.418 0 8-3.582 8-8v-16c-.015-13.249-10.751-23.985-24-24zm8 32h-64v-8c.005-4.416 3.584-7.995 8-8h48c4.416.005 7.995 3.584 8 8z"/><path d="m308.013 96h-80c-4.418 0-8 3.582-8 8v16c.015 13.249 10.751 23.985 24 24h48c13.249-.015 23.985-10.751 24-24v-16c0-4.418-3.582-8-8-8zm-8 24c-.005 4.416-3.584 7.995-8 8h-48c-4.416-.005-7.995-3.584-8-8v-8h64z"/><path d="m425.613 352c-7.72-.005-15.053 3.377-20.062 9.251-9.46-11.08-26.111-12.393-37.191-2.933-1.04.888-2.01 1.856-2.901 2.895-8.602-10.07-23.352-12.17-34.423-4.9-4.011-2.79-8.777-4.294-13.663-4.313h-43.909c-11.726-15.153-29.811-24.016-48.971-24h-14.32c-15.592-.006-30.609 5.891-42.03 16.506-.889-.333-1.829-.504-2.778-.506h-56c0-4.418-3.582-8-8-8h-65.352c-4.418 0-8 3.582-8 8v128c0 4.418 3.582 8 8 8h129.352c4.418 0 8-3.582 8-8v-6.777l102.877 14.7c.375.054.753.08 1.131.08.332 0 .664-.021.993-.062l112.547-14.081c12.192-1.449 23.022-8.474 29.318-19.015l16.08-26.72c.188-.312.355-.637.5-.972l13.036-30.39c5.742-13.382-.453-28.885-13.835-34.627-3.286-1.41-6.824-2.136-10.399-2.136zm-332.248 112h-49.352v-112h49.352zm64 0h-48v-104h48zm212.348-75.116c.109-.238.218-.506.322-.8l5.912-13.8c1.635-3.815 5.388-6.287 9.539-6.284 5.734 0 10.383 4.648 10.383 10.383 0 1.406-.286 2.798-.839 4.09l-10.941 25.527h-22.576zm-28.34 11.116v-24c-.001-2.256-.322-4.5-.953-6.665 4.686-2.652 10.623-1.244 13.619 3.23 1.947 2.789 2.36 6.371 1.1 9.53-.079.2-.141.4-.2.607l-10.849 25.298h-10.717c4.418 0 8-3.582 8-8zm93.768-17.554-12.824 29.9-15.804 26.254c-3.775 6.313-10.267 10.517-17.573 11.377l-111.5 13.948-104.067-14.863v-86.529c8.639-11.657 22.29-18.532 36.8-18.533h14.32c15.361-.01 29.709 7.664 38.229 20.446 1.485 2.221 3.98 3.554 6.651 3.554h48c2.723.011 5.253 1.405 6.718 3.7.833 1.28 1.278 2.773 1.282 4.3v16h-89.36v16h68.092l-2.085 4.849c-1.74 4.061.141 8.764 4.202 10.504.996.427 2.068.647 3.151.647h80.08c3.198 0 6.089-1.904 7.351-4.842l19.282-44.887c1.634-3.809 5.382-6.277 9.527-6.271 5.725.001 10.365 4.642 10.365 10.367 0 1.402-.285 2.79-.837 4.079z"/><path d="m380.013 256h16v16h-16z"/><path d="m356.013 280h16v16h-16z"/><path d="m404.013 280h16v16h-16z"/><path d="m380.013 304h16v16h-16z"/><path d="m116.013 40h16v16h-16z"/><path d="m92.013 64h16v16h-16z"/><path d="m140.013 64h16v16h-16z"/><path d="m116.013 88h16v16h-16z"/><path d="m396.013 72h16v16h-16z"/><path d="m380.013 88h16v16h-16z"/><path d="m412.013 88h16v16h-16z"/><path d="m396.013 104h16v16h-16z"/><path d="m148.013 216h16v16h-16z"/><path d="m132.013 232h16v16h-16z"/><path d="m164.013 232h16v16h-16z"/><path d="m148.013 248h16v16h-16z"/>
</symbol>


<symbol id="icon-contract" viewBox="0 0 512 512">
<title>contract</title>
<g>
	<g>
		<path d="M498.791,161.127c-17.545-17.546-46.094-17.545-63.645,0.004c-5.398,5.403-39.863,39.896-45.128,45.166V87.426
			c0-12.02-4.681-23.32-13.181-31.819L334.412,13.18C325.913,4.68,314.612,0,302.592,0H45.018c-24.813,0-45,20.187-45,45v422
			c0,24.813,20.187,45,45,45h300c24.813,0,45-20.187,45-45V333.631L498.79,224.767C516.377,207.181,516.381,178.715,498.791,161.127
			z M300.019,30c2.834,0,8.295-0.491,13.18,4.393l42.426,42.427c4.76,4.761,4.394,9.978,4.394,13.18h-60V30z M360.018,467
			c0,8.271-6.728,15-15,15h-300c-8.271,0-15-6.729-15-15V45c0-8.271,6.729-15,15-15h225v75c0,8.284,6.716,15,15,15h75v116.323
			c0,0-44.254,44.292-44.256,44.293l-21.203,21.204c-1.646,1.646-2.888,3.654-3.624,5.863l-21.214,63.64
			c-1.797,5.39-0.394,11.333,3.624,15.35c4.023,4.023,9.968,5.419,15.35,3.624l63.64-21.213c2.209-0.736,4.217-1.977,5.863-3.624
			l1.82-1.82V467z M326.378,312.427l21.213,21.213l-8.103,8.103l-31.819,10.606l10.606-31.82L326.378,312.427z M368.8,312.422
			l-21.213-21.213c11.296-11.305,61.465-61.517,72.105-72.166l21.213,21.213L368.8,312.422z M477.573,203.558l-15.463,15.476
			l-21.213-21.213l15.468-15.481c5.852-5.849,15.366-5.848,21.214,0C483.426,188.19,483.457,197.673,477.573,203.558z"/>
	</g>
</g>
<g>
	<g>
		<path d="M285.018,150h-210c-8.284,0-15,6.716-15,15s6.716,15,15,15h210c8.284,0,15-6.716,15-15S293.302,150,285.018,150z"/>
	</g>
</g>
<g>
	<g>
		<path d="M225.018,210h-150c-8.284,0-15,6.716-15,15s6.716,15,15,15h150c8.284,0,15-6.716,15-15S233.302,210,225.018,210z"/>
	</g>
</g>
<g>
	<g>
		<path d="M225.018,270h-150c-8.284,0-15,6.716-15,15s6.716,15,15,15h150c8.284,0,15-6.716,15-15S233.302,270,225.018,270z"/>
	</g>
</g>
<g>
	<g>
		<path d="M225.018,330h-150c-8.284,0-15,6.716-15,15s6.716,15,15,15h150c8.284,0,15-6.716,15-15S233.302,330,225.018,330z"/>
	</g>
</g>
<g>
	<g>
		<path d="M285.018,422h-90c-8.284,0-15,6.716-15,15s6.716,15,15,15h90c8.284,0,15-6.716,15-15S293.302,422,285.018,422z"/>
	</g>
</g>
</symbol>


</defs>
</svg>
